<svg xmlns="http://www.w3.org/2000/svg" viewBox="0 0 95.58 79.9"><defs><style>.cls-1{fill:#a6a6a6;}</style></defs><title>Asset 2</title><g id="Layer_2" data-name="Layer 2"><g id="Layer_1-2" data-name="Layer 1"><path class="car" d="M95.58,63.26q0-12.43,0-24.86a15.44,15.44,0,0,0-.17-2.09,10.64,10.64,0,0,0-7.68-8.52,1.32,1.32,0,0,1-1-1c-2.48-6.44-5-12.87-7.49-19.29a15.88,15.88,0,0,0-1.85-3.48c-2.16-3-5.3-4-8.84-4Q47.79,0,27.06,0a11.65,11.65,0,0,0-6,1.46,11.11,11.11,0,0,0-4.7,6c-2.48,6.44-5,12.87-7.43,19.31a1.58,1.58,0,0,1-1.23,1.07,8.84,8.84,0,0,0-2.23.91A10.7,10.7,0,0,0,0,38.48q0,12.35,0,24.7c0,.23,0,.47.05.81H7.7c0,.49,0,.86,0,1.24,0,2.81-.07,5.62.09,8.42a6.71,6.71,0,0,0,9.61,5.6,6.59,6.59,0,0,0,4-6.18c.09-2.72,0-5.45,0-8.18,0-.29,0-.58,0-.89H74.22c0,.37,0,.66,0,1,0,2.54,0,5.07,0,7.61a7,7,0,0,0,2.34,5.64,6.67,6.67,0,0,0,7.2,1.13,6.28,6.28,0,0,0,4.06-6c.1-2.78,0-5.56.06-8.34,0-.31,0-.63,0-1.05h7.67C95.56,63.63,95.58,63.44,95.58,63.26ZM16.1,27c2.13-5.7,4.23-11.42,6.4-17.11a4.49,4.49,0,0,1,4.73-3.2H68.36a4.46,4.46,0,0,1,4.72,3.2c2.16,5.69,4.27,11.4,6.4,17.11a4.3,4.3,0,0,1,.11.48H16A2.18,2.18,0,0,1,16.1,27ZM14.79,49.07a7.29,7.29,0,0,1,0-14.58,7.29,7.29,0,0,1,0,14.58Zm66,0a7.29,7.29,0,1,1,7.13-7.3A7.28,7.28,0,0,1,80.8,49.07Z"/></g></g></svg>