<svg id="HatMain" xmlns="http://www.w3.org/2000/svg" viewBox="0 0 50 50"><defs><style>.cls-1{fill:#1c1c1c;}</style></defs><title>chefhat</title><path class="cls-1" d="M8.59,27.19a10.28,10.28,0,0,1-7.51-5.6,9.9,9.9,0,0,1-.7-7.25,10.32,10.32,0,0,1,13-7.08C14.94,2.51,18.13-.21,23.22,0c4.39.19,7.21,2.75,8.66,6.84.77-.1,1.54-.25,2.33-.3a10.08,10.08,0,0,1,10.38,8,10.19,10.19,0,0,1-4.67,10.92,9,9,0,0,1-3.09,1.12c-.37.06-.44.21-.44.54q0,7.35,0,14.69c0,.28,0,.56,0,.84a2.33,2.33,0,0,1-1.26,2.27A11.86,11.86,0,0,1,31,46.49a42.1,42.1,0,0,1-12.15.68,26.07,26.07,0,0,1-7.07-1.35,11.14,11.14,0,0,1-2.14-1.11,2.23,2.23,0,0,1-1-2c0-5,0-10,0-15C8.59,27.56,8.59,27.39,8.59,27.19ZM34.92,40.93c0-.21,0-.36,0-.51q0-2,0-4.06,0-5.06,0-10.12c0-.73.2-.92.93-1A9.77,9.77,0,0,0,37.16,25a8.45,8.45,0,0,0,6-9.92A8.62,8.62,0,0,0,31.69,8.5a3.1,3.1,0,0,1-.54.09,2.06,2.06,0,0,0-.6.09,8.8,8.8,0,0,0-2.76,2.19c-.07.08-.13.21-.21.24a2.5,2.5,0,0,1-.5.07,1.64,1.64,0,0,1,0-.51,1.13,1.13,0,0,1,.28-.37A9.35,9.35,0,0,1,30.23,8c.22-.11.33-.22.27-.5a8.14,8.14,0,0,0-7.3-6.09A8,8,0,0,0,14.77,8c-.2,1-.5,1.13-1.43.79A8.68,8.68,0,0,0,9.27,8.3,8.8,8.8,0,1,0,15,24.48c.53-.33,1-.28,1.22.12s.09.78-.42,1.12a9.18,9.18,0,0,1-3.34,1.37c-.77.15-1.56.21-2.35.31v13.5c.06,0,.09,0,.12,0A19,19,0,0,1,16.86,39a43.85,43.85,0,0,1,9.31-.2A23.06,23.06,0,0,1,34.92,40.93ZM22.6,40.14a38.85,38.85,0,0,0-8.45.85,11.17,11.17,0,0,0-3.44,1.26c-.86.53-.89,1,0,1.5a12.21,12.21,0,0,0,2.35,1A28.47,28.47,0,0,0,20,45.8,38.5,38.5,0,0,0,30.91,45a16.62,16.62,0,0,0,3.23-1.16c1.08-.51,1.07-1.08,0-1.66a10.14,10.14,0,0,0-1.92-.81A34.15,34.15,0,0,0,22.6,40.14Z"/></svg>