<svg xmlns="http://www.w3.org/2000/svg" viewBox="0 0 167.33 156.04"><title>Asset 1</title><g id="Layer_2" data-name="Layer 2"><g id="Layer_1-2" data-name="Layer 1"><path d="M41.23,93.08C32.38,90.86,24.62,89.95,17.77,87,5.67,81.68-.94,69,.11,56,1.18,42.72,10,31.21,23.2,27.62A29.76,29.76,0,0,0,39.41,17.19C50.41,4.12,65.89-.27,82.47,0c17.3.3,32.67,5.62,44,19.79.95,1.19,3.41,1.69,5.15,1.64,20.32-.57,36.18,14.78,35.72,34.74-.35,15-10.57,27-27.13,31-4,1-4.91,2.54-5,6.24-.28,14.66-1.07,29.31-1.2,44-.05,5.84-2.43,9.38-7.47,11.73-10.48,4.88-21.68,6.24-33,6.79-12.2.58-24.31-.3-36.08-3.79a60.78,60.78,0,0,1-9.67-4c-4.55-2.26-6.74-5.81-6.64-11.22C41.4,121.93,41.23,107,41.23,93.08Z"/></g></g></svg>