<svg xmlns="http://www.w3.org/2000/svg" viewBox="0 0 187.48 215.44"><title>Asset 1</title><g id="Layer_2" data-name="Layer 2"><g id="cuisine"><path d="M142.76,67.34Q163.68,38.7,184.55,10c1.35-1.87,3.38-5.53,2.84-6.08A12.48,12.48,0,0,0,180.27.18a18,18,0,0,0-9,1.72,98.35,98.35,0,0,0-14.64,8.2c-19.86,13.73-36.29,31.46-53.22,48.62-11,11.18-18,23.15-13.54,39,.08.3.15.61.22.91q-2-2.55-4-5.08c-4.14-5.17-5.57-10.5-3.64-16.71,2.9-9.29,1.05-17.31-5.75-24.36C63.41,38.76,50.27,24.84,37,11,33.41,7.27,29.64,3.67,26,0L24.68,1.06a61.44,61.44,0,0,0,3.61,5.65c11.42,14.33,23,28.57,34.31,43,1.75,2.22,2.73,5.06,4.07,7.61l-2,1.29-47-52.51L16,7.38c1.27,2.09,2.42,4.26,3.84,6.24C31.22,29.46,42.67,45.24,53.94,61.14c.94,1.33.81,3.41,1.18,5.15-1.68-.78-3.93-1.11-5-2.4C37.84,48.56,25.73,33.07,13.52,17.67c-1.4-1.76-3.07-3.3-4.61-4.94L7.24,13.86,44.72,73.46l-1.83,1.61c-2.08-2-4.54-3.74-6.19-6.05C26,54.14,15.5,39.11,4.87,24.18A54.26,54.26,0,0,0,.45,19.29c-.58,1.53-.57,2.59-.11,3.39,11.49,19.89,23.1,39.71,34.5,59.65,5.21,9.11,12.63,13.75,23.25,13.42,6.11-.19,10.61,2.69,14.21,7.76Q77.1,110.29,82,117c-7.17,7.77-14.33,15.57-21.27,23.54q-20.29,23.29-40.19,46.92c-4.84,5.78-5.16,10.53-.46,15.93a41.92,41.92,0,0,0,13.19,10.14c8.11,3.88,13.27,1.88,18.14-6.42,8.44-14.38,16.12-29.2,24.79-43.45q9-14.83,18.31-29.51c3.64,5,7.26,10.08,10.79,15.18,7.19,10.37,13.78,21.18,20.24,32,4.5,7.56,8.05,15.69,12.53,23.27,3.56,6,7.9,7.33,14.49,5a28.25,28.25,0,0,0,7.91-4.13c9.8-7.68,10.32-14.5,2.12-23.86-1.31-1.5-2.76-2.89-4.16-4.3-10.31-10.37-21.36-20.11-30.77-31.23-7.8-9.2-15.23-18.71-22.62-28.26,2.36-3.61,4.72-7.21,7.12-10.8C121.43,93.17,142.37,67.06,142.76,67.34Z"/></g></g></svg>