<svg xmlns="http://www.w3.org/2000/svg" viewBox="0 0 50 50"><defs><style>.cls-1{fill:#cfcfcf;}</style></defs><title>Asset 3</title><g id="Layer_2" data-name="Layer 2"><g id="Starmain"><path class="cls-1" d="M150.64,184.4c-1.51-.63-4.18-1.54-6.66-2.83-14.62-7.61-29.24-15.23-43.75-23-2.7-1.46-4.69-1.3-7.31.11C78.4,166.44,63.77,174,49.18,181.7c-1.18.62-2.36,1.66-3.57,1.7-2.85.11-6.56.75-8.35-.73a10.36,10.36,0,0,1-3-8.2c2.63-17.27,5.72-34.48,8.9-51.66.59-3.16,0-5.22-2.29-7.46C28.6,103.6,16.5,91.66,4.31,79.82,1.46,77-1.05,74.14.45,69.79s5.13-5.14,9.12-5.69C26.06,61.79,42.51,59.23,59,57c3.73-.5,5.77-2.08,7.38-5.46C73.5,36.69,80.92,22,88.14,7.15,90,3.42,91.9,0,96.73,0s6.7,3.65,8.51,7.33c7.26,14.79,14.69,29.51,21.75,44.4,1.66,3.5,3.89,4.81,7.49,5.3,16.66,2.28,33.29,4.84,49.94,7.13,3.95.54,7.15,1.83,8.49,5.81s-.74,6.74-3.36,9.29c-12.28,12-24.51,24-36.92,35.89-2.48,2.37-3,4.53-2.4,7.88,3.19,17.18,6.1,34.42,9,51.64C160.2,180,156.82,184.31,150.64,184.4ZM24.25,77.44C26,79.31,27,80.54,28.14,81.65c9.05,8.85,18.08,17.72,27.22,26.47,3,2.86,4.67,6,4,10.2-.77,4.59-1.57,9.18-2.35,13.77C55.29,142,53.6,152,51.74,163c9.3-4.86,17.62-9.3,26-13.57,22.57-11.49,14.86-11.78,37.81,0,8.39,4.3,16.72,8.72,25.71,13.41-.17-1.79-.2-2.73-.36-3.65-2.18-13.13-4.21-26.29-6.67-39.38-.95-5,.52-8.63,4.08-12,9-8.61,17.93-17.39,26.86-26.13,1.13-1.1,2.14-2.32,3.64-3.95-1.49-.34-2.24-.57-3-.68-13.34-2-26.66-4-40-5.81-4.55-.62-7.67-2.74-9.62-6.88-2.84-6-5.78-12-8.74-18C104,39.45,100.54,32.59,96.74,25c-1.18,2.07-1.89,3.17-2.46,4.33-5.66,11.5-11.4,23-16.91,34.53-2.06,4.33-5.13,6.79-9.89,7.28-2.31.24-4.61.69-6.91,1Z"/></g></g></svg>